<?xml version="1.0" encoding="UTF-8"?>
<svg id="Layer_1" data-name="Layer 1" xmlns="http://www.w3.org/2000/svg" viewBox="0 0 4362.04 1080">
  <defs>
    <style>
      .cls-1 {
        letter-spacing: 0em;
      }

      .cls-2 {
        fill: #fff;
      }

      .cls-3 {
        font-family: Montserrat-ExtraBold, Montserrat;
        font-size: 573.24px;
        font-weight: 700;
      }

      .cls-3, .cls-4 {
        fill: #295077;
      }

      .cls-5 {
        letter-spacing: -.02em;
      }

      .cls-4 {
        stroke: #2a5076;
        stroke-miterlimit: 10;
        stroke-width: 27px;
      }

      .cls-6 {
        letter-spacing: 0em;
      }

      .cls-7 {
        letter-spacing: 0em;
      }
    </style>
  </defs>
  <circle class="cls-4" cx="632.14" cy="540" r="520.41"/>
  <path class="cls-2" d="m468.07,95.83h314.69c34.8,13.16,64.74,48.18,70.83,62.95,23.71,57.49,71.92,149.3,12.68,283.35-17.21,38.95-60.98,50.15-87.42,67.56-17.38,11.44-24.02,47.85-13.66,65.91l199.11,312.93c15.1,26.32,10.48,57.96-19.87,57.96h-103.53c-13.77,0-26.54-7.17-33.71-18.93h0s-234.6-384.74-234.6-384.74c-15.6-25.59-15.64-78.96,36.84-92.5,15.84-4.09,59.9-9.54,76.19-18.62,72.8-40.63,87.24-46.19,66.76-154.25-3.54-18.71-32.75-49.93-51.79-49.93h-212.69c-13.46,0-28.41-32.41-35.67-43.74l-17.4-27.16c-16.83-26.28,2.04-60.78,33.25-60.78Z"/>
  <path class="cls-2" d="m520.69,424.92l-67.07,2.16c-30.37,0-51.85,26.86-36.1,52.82l247.1,407.41c15.75,25.97-2.95,59.18-33.32,59.18h-80.41c-13.45,0-25.73-6.8-32.84-18.22L178.94,382.53c-16.18-25.96,6.5-74.45,37.09-74.45h301.93c8.69,0,17.13,2.9,23.98,8.25h0c29.22,22.81,15.82,108.58-21.25,108.58Z"/>
  <text class="cls-3" transform="translate(1262.72 778.21)"><tspan class="cls-7" x="0" y="0">R</tspan><tspan class="cls-1" x="421.33" y="0">a</tspan><tspan x="785.32" y="0">d</tspan><tspan class="cls-1" x="1185.44" y="0">a</tspan><tspan class="cls-6" x="1549.44" y="0">c</tspan><tspan class="cls-5" x="1900.25" y="0">t</tspan><tspan x="2147.32" y="0">or</tspan></text>
</svg>